<?xml version="1.0" encoding="UTF-8"?>
<svg width="300" height="200" viewBox="0 0 300 200" fill="none" xmlns="http://www.w3.org/2000/svg">
  <!-- Clean, minimal background -->
  <rect width="300" height="200" fill="#f8fafc"/>
  
  <!-- Central knowledge hub -->
  <circle cx="150" cy="100" r="25" fill="white" stroke="#2563eb" stroke-width="3"/>
  <circle cx="150" cy="100" r="10" fill="#2563eb"/>
  
  <!-- Knowledge categories -->
  <rect x="50" y="50" width="60" height="40" rx="6" fill="white" stroke="#2563eb" stroke-width="2"/>
  <rect x="190" y="50" width="60" height="40" rx="6" fill="white" stroke="#2563eb" stroke-width="2"/>
  <rect x="50" y="110" width="60" height="40" rx="6" fill="white" stroke="#2563eb" stroke-width="2"/>
  <rect x="190" y="110" width="60" height="40" rx="6" fill="white" stroke="#2563eb" stroke-width="2"/>
  
  <!-- Simple content indicators -->
  <rect x="60" y="60" width="30" height="2" fill="#2563eb" opacity="0.6"/>
  <rect x="60" y="65" width="25" height="2" fill="#2563eb" opacity="0.6"/>
  <rect x="60" y="70" width="35" height="2" fill="#2563eb" opacity="0.6"/>
  <rect x="60" y="75" width="20" height="2" fill="#2563eb" opacity="0.6"/>
  
  <rect x="200" y="60" width="30" height="2" fill="#2563eb" opacity="0.6"/>
  <rect x="200" y="65" width="25" height="2" fill="#2563eb" opacity="0.6"/>
  <rect x="200" y="70" width="35" height="2" fill="#2563eb" opacity="0.6"/>
  <rect x="200" y="75" width="20" height="2" fill="#2563eb" opacity="0.6"/>
  
  <rect x="60" y="120" width="30" height="2" fill="#2563eb" opacity="0.6"/>
  <rect x="60" y="125" width="25" height="2" fill="#2563eb" opacity="0.6"/>
  <rect x="60" y="130" width="35" height="2" fill="#2563eb" opacity="0.6"/>
  <rect x="60" y="135" width="20" height="2" fill="#2563eb" opacity="0.6"/>
  
  <rect x="200" y="120" width="30" height="2" fill="#2563eb" opacity="0.6"/>
  <rect x="200" y="125" width="25" height="2" fill="#2563eb" opacity="0.6"/>
  <rect x="200" y="130" width="35" height="2" fill="#2563eb" opacity="0.6"/>
  <rect x="200" y="135" width="20" height="2" fill="#2563eb" opacity="0.6"/>
  
  <!-- Clean connections -->
  <path d="M110 70 L125 85" stroke="#2563eb" stroke-width="2" opacity="0.6"/>
  <path d="M190 70 L175 85" stroke="#2563eb" stroke-width="2" opacity="0.6"/>
  <path d="M110 130 L125 115" stroke="#2563eb" stroke-width="2" opacity="0.6"/>
  <path d="M190 130 L175 115" stroke="#2563eb" stroke-width="2" opacity="0.6"/>
</svg>